HIERARCHY
ROOT Hips
{
	OFFSET 0.000000 0.000000 0.000000
	CHANNELS 6 Xposition Yposition Zposition Zrotation Xrotation Yrotation
	JOINT Spine
	{
		OFFSET 0.000000 -0.000060 365.647827
		CHANNELS 6 Xposition Yposition Zposition Zrotation Xrotation Yrotation
		JOINT Spine1
		{
			OFFSET 0.000000 -0.000135 827.386536
			CHANNELS 6 Xposition Yposition Zposition Zrotation Xrotation Yrotation
			JOINT Neck
			{
				OFFSET 0.000000 -0.000149 916.568909
				CHANNELS 6 Xposition Yposition Zposition Zrotation Xrotation Yrotation
				JOINT Head
				{
					OFFSET 0.000000 -89.182503 691.163635
					CHANNELS 6 Xposition Yposition Zposition Zrotation Xrotation Yrotation
					End Site
					{
						OFFSET 0.000000 -0.000143 891.824036
					}
				}
			}
			JOINT LeftShoulder
			{
				OFFSET 177.992798 19.451593 747.856750
				CHANNELS 6 Xposition Yposition Zposition Zrotation Xrotation Yrotation
				JOINT LeftArm
				{
					OFFSET 515.877136 0.000000 0.000000
					CHANNELS 6 Xposition Yposition Zposition Zrotation Xrotation Yrotation
					JOINT LeftForeArm
					{
						OFFSET 1337.809814 0.000000 0.000000
						CHANNELS 6 Xposition Yposition Zposition Zrotation Xrotation Yrotation
						JOINT LeftHand
						{
							OFFSET 1196.500488 0.000000 0.000000
							CHANNELS 6 Xposition Yposition Zposition Zrotation Xrotation Yrotation
							End Site
							{
								OFFSET 668.868103 0.000000 0.000000
							}
						}
					}
				}
			}
			JOINT RightShoulder
			{
				OFFSET -178.356552 19.451593 747.856750
				CHANNELS 6 Xposition Yposition Zposition Zrotation Xrotation Yrotation
				JOINT RightArm
				{
					OFFSET -515.877136 0.000000 0.000000
					CHANNELS 6 Xposition Yposition Zposition Zrotation Xrotation Yrotation
					JOINT RightForeArm
					{
						OFFSET -1337.809814 0.000000 0.000000
						CHANNELS 6 Xposition Yposition Zposition Zrotation Xrotation Yrotation
						JOINT RightHand
						{
							OFFSET -1196.500488 0.000000 0.000000
							CHANNELS 6 Xposition Yposition Zposition Zrotation Xrotation Yrotation
							End Site
							{
								OFFSET -668.868103 0.000000 0.000000
							}
						}
					}
				}
			}
		}
	}
	JOINT LeftUpLeg
	{
		OFFSET 445.911926 0.000000 0.000000
		CHANNELS 6 Xposition Yposition Zposition Zrotation Xrotation Yrotation
		JOINT LeftLeg
		{
			OFFSET 0.000000 0.000378 -2320.838135
			CHANNELS 6 Xposition Yposition Zposition Zrotation Xrotation Yrotation
			JOINT LeftFoot
			{
				OFFSET 0.000000 0.000304 -1864.391968
				CHANNELS 6 Xposition Yposition Zposition Zrotation Xrotation Yrotation
				JOINT LeftToeBase
				{
					OFFSET 0.000000 -668.867859 -289.842834
					CHANNELS 6 Xposition Yposition Zposition Zrotation Xrotation Yrotation
					End Site
					{
						OFFSET 0.000000 -178.364792 0.000000
					}
				}
			}
		}
	}
	JOINT RightUpLeg
	{
		OFFSET -445.911926 0.000000 0.000000
		CHANNELS 6 Xposition Yposition Zposition Zrotation Xrotation Yrotation
		JOINT RightLeg
		{
			OFFSET 0.000000 0.000378 -2320.838135
			CHANNELS 6 Xposition Yposition Zposition Zrotation Xrotation Yrotation
			JOINT RightFoot
			{
				OFFSET 0.000000 0.000304 -1864.391968
				CHANNELS 6 Xposition Yposition Zposition Zrotation Xrotation Yrotation
				JOINT RightToeBase
				{
					OFFSET 0.000000 -668.867859 -289.842834
					CHANNELS 6 Xposition Yposition Zposition Zrotation Xrotation Yrotation
					End Site
					{
						OFFSET 0.000000 -178.364792 0.000000
					}
				}
			}
		}
	}
}
MOTION
Frames: 9
Frame Time: 0.041667
11.188725 582.715271 3667.726807 -0.546858 3.147290 1.285809 -0.000003 -0.000118 365.647522 -4.089027 -11.038806 -2.511386 -0.000006 -0.000154 827.386780 -1.674035 10.599543 4.267262 0.000030 -0.000089 916.568237 -17.916107 11.064741 6.784346 -0.000126 -89.182617 691.163940 -18.429940 15.234614 -22.444265 177.992859 19.451620 747.856445 -17.328972 1.863885 1.024563 515.877197 -0.000163 0.000085 -64.492251 43.698075 48.813733 1337.809448 0.000136 0.000044 -60.758399 37.369331 -71.919884 1196.501099 0.000063 0.000503 -11.172126 -8.300751 -33.453341 -178.356491 19.451572 747.856201 7.685622 -1.657648 2.429390 -515.877136 -0.000094 -0.000153 31.328756 22.686653 -29.767126 -1337.810059 -0.000176 0.000378 -2.479875 -11.268874 3.559193 -1196.500488 -0.000260 -0.000022 -3.056402 -11.745901 20.903440 445.911926 -0.000062 -0.000362 -14.140314 -13.372831 -38.737893 0.000310 0.000415 -2320.838135 15.136937 43.228441 25.678998 0.000049 0.000114 -1864.392090 25.652871 -15.550295 8.849722 -0.000010 -668.867859 -289.842865 -0.000000 -0.000000 0.000002 -445.911926 -0.000024 -0.000114 2.186501 -18.332229 34.467501 0.000028 0.000488 -2320.838379 1.980294 39.718223 -35.457735 -0.000024 0.000393 -1864.392090 -34.114206 -20.865980 -7.700526 -0.000166 -668.867859 -289.842865 -0.000001 0.000000 -0.000001 
10.806110 582.268311 3667.727539 -0.545427 3.151847 1.291221 -0.000002 0.000030 365.647888 -4.084858 -11.052049 -2.516526 0.000013 -0.000154 827.386719 -1.673401 10.614520 4.272169 -0.000018 -0.000013 916.568848 -17.914364 11.066186 6.776237 -0.000136 -89.182655 691.163818 -18.429633 15.225248 -22.430522 177.992844 19.451630 747.856567 -17.326257 1.862720 1.021248 515.877136 -0.000146 0.000477 -64.516826 43.706514 48.840384 1337.810059 0.000038 0.000319 -60.743823 37.373316 -71.937690 1196.501099 0.000023 0.000070 -11.169815 -8.304766 -33.394700 -178.356506 19.451601 747.856506 7.681899 -1.657418 2.418277 -515.877258 0.000104 -0.000315 31.345497 22.702456 -29.772641 -1337.810181 0.000507 -0.000264 -2.466068 -11.303112 3.553839 -1196.500610 0.000039 0.000201 -3.035082 -11.778514 20.969295 445.911926 0.000100 -0.000095 -14.140640 -13.368611 -38.743989 0.000386 0.000320 -2320.838135 15.074024 43.201141 25.713873 -0.000180 0.000247 -1864.392090 25.704514 -15.539409 8.882810 0.000086 -668.868042 -289.842834 0.000001 0.000000 0.000000 -445.911896 0.000038 -0.000267 2.180246 -18.335440 34.457266 0.000104 0.000430 -2320.838867 1.990362 39.723762 -35.467216 0.000090 0.000278 -1864.391968 -34.121429 -20.874433 -7.700620 0.000027 -668.867920 -289.842865 0.000000 0.000001 -0.000001 
10.351669 582.025024 3667.859863 -0.537293 3.165282 1.296416 -0.000007 -0.000108 365.647736 -4.085725 -11.062769 -2.508227 0.000004 -0.000230 827.386963 -1.671896 10.611431 4.252452 0.000020 -0.000089 916.569580 -17.912893 11.068965 6.768313 0.000169 -89.182587 691.163452 -18.430733 15.210811 -22.391522 177.992828 19.451641 747.856689 -17.315539 1.873212 1.030629 515.877197 -0.000169 0.001057 -64.575047 43.711981 48.877366 1337.809448 -0.000325 0.000128 -60.683178 37.358044 -71.999182 1196.500732 -0.000037 0.000287 -11.191206 -8.315474 -33.364856 -178.356537 19.451677 747.857178 7.690326 -1.641490 2.427344 -515.877319 0.000089 -0.000208 31.359932 22.715828 -29.785376 -1337.809937 0.000123 -0.001077 -2.485063 -11.292721 3.535015 -1196.500977 -0.000322 -0.000480 -3.052203 -11.772754 21.031780 445.911926 -0.000062 -0.000191 -14.148146 -13.377949 -38.751994 0.000043 0.000492 -2320.838379 15.080142 43.198990 25.696215 -0.000199 0.000285 -1864.392090 25.699504 -15.534652 8.869262 -0.000019 -668.867920 -289.842834 -0.000000 -0.000000 0.000001 -445.911926 -0.000048 -0.000095 2.172957 -18.346735 34.442206 -0.000086 0.000411 -2320.838379 1.960167 39.746336 -35.442760 0.000205 0.000316 -1864.392212 -34.105634 -20.878445 -7.712767 0.000093 -668.867737 -289.842834 0.000001 0.000001 0.000001 
9.895965 581.613892 3667.871094 -0.532789 3.166830 1.295430 -0.000011 0.000087 365.647705 -4.079233 -11.065670 -2.498296 -0.000006 -0.000059 827.386536 -1.669111 10.620273 4.238648 -0.000018 -0.000013 916.569458 -17.908097 11.053787 6.771557 0.000010 -89.182243 691.164612 -18.427097 15.214943 -22.378237 177.992844 19.451633 747.856995 -17.314446 1.867744 1.042850 515.877197 -0.000025 -0.000284 -64.566331 43.712111 48.874095 1337.809814 0.000066 0.000176 -60.711578 37.371510 -71.966937 1196.500732 0.000088 0.000022 -11.184092 -8.299912 -33.359935 -178.356537 19.451656 747.856934 7.685345 -1.647866 2.438661 -515.877136 0.000170 -0.000297 31.454677 22.806391 -29.849460 -1337.809814 0.000378 0.000210 -2.539977 -11.347728 3.551793 -1196.500732 -0.000112 0.000105 -3.022819 -11.818978 20.982355 445.911926 0.000134 -0.000114 -14.146638 -13.374601 -38.748479 0.000386 0.000511 -2320.838135 15.080907 43.189072 25.683403 -0.000152 0.000324 -1864.392090 25.710090 -15.513036 8.921378 -0.000288 -668.867859 -289.842804 0.000001 -0.000003 0.000001 -445.911926 0.000124 0.000057 2.169785 -18.346868 34.433678 0.000257 0.000468 -2320.838379 1.919364 39.779899 -35.407796 0.000319 0.000336 -1864.391846 -34.079164 -20.868081 -7.667241 0.000085 -668.868103 -289.842804 -0.000001 0.000000 0.000002 
9.529070 581.328186 3667.902344 -0.536386 3.175864 1.297411 0.000008 -0.000003 365.647736 -4.068629 -11.066448 -2.485630 0.000004 -0.000078 827.386414 -1.663824 10.613200 4.218407 0.000049 -0.000165 916.568848 -17.909296 11.045518 6.775074 -0.000122 -89.182571 691.163818 -18.428834 15.219494 -22.358884 177.992844 19.451551 747.856934 -17.316179 1.865604 1.048931 515.877197 -0.000224 0.000066 -64.660048 43.737017 48.954445 1337.809814 0.000031 0.000116 -60.628563 37.350647 -72.057191 1196.500732 0.000110 0.000149 -11.172305 -8.324516 -33.403802 -178.356491 19.451597 747.856934 7.674610 -1.621752 2.444078 -515.877258 0.000042 -0.000453 31.483545 22.817891 -29.848869 -1337.810181 -0.000184 -0.000655 -2.550506 -11.352534 3.538416 -1196.500488 -0.000185 0.000101 -3.018268 -11.821746 20.938305 445.911896 0.000081 -0.000114 -14.146404 -13.372614 -38.755316 0.000348 0.000511 -2320.838379 15.055878 43.173803 25.698710 -0.000152 0.000285 -1864.392334 25.722013 -15.520104 8.910523 -0.000235 -668.867737 -289.842834 0.000002 -0.000001 0.000002 -445.911926 0.000076 -0.000381 2.172110 -18.356538 34.427695 0.000066 0.000487 -2320.838379 1.934134 39.784445 -35.419517 -0.000063 0.000412 -1864.391602 -34.078884 -20.897862 -7.712078 -0.000100 -668.867798 -289.842834 -0.000000 0.000001 -0.000000 
9.161120 580.867371 3667.873535 -0.526430 3.177525 1.289928 -0.000004 0.000006 365.648193 -4.066862 -11.069857 -2.472635 0.000004 -0.000249 827.386780 -1.662956 10.617061 4.209604 0.000001 -0.000241 916.569153 -17.906570 11.036994 6.780952 -0.000026 -89.182808 691.164307 -18.427196 15.219910 -22.350430 177.992828 19.451580 747.856934 -17.313198 1.863171 1.055945 515.877014 -0.000143 -0.000474 -64.642891 43.728128 48.944586 1337.809448 0.000321 0.000042 -60.677604 37.364649 -72.005705 1196.500732 0.000020 0.000102 -11.174945 -8.304215 -33.442324 -178.356552 19.451591 747.856934 7.666932 -1.622672 2.453103 -515.877258 0.000042 0.000308 31.622232 22.982745 -29.933468 -1337.809937 0.000300 0.000202 -2.587155 -11.445584 3.572983 -1196.500854 -0.000240 -0.000068 -3.020564 -11.911125 20.861018 445.911926 0.000083 0.000114 -14.139149 -13.383959 -38.734751 0.000271 0.000415 -2320.838623 15.104441 43.186292 25.627160 -0.000094 0.000419 -1864.391479 25.685987 -15.528264 8.891638 -0.000004 -668.868042 -289.842834 -0.000002 -0.000001 0.000000 -445.911987 0.000052 0.000229 2.145880 -18.363889 34.429184 -0.000010 0.000411 -2320.837891 1.992040 39.774524 -35.451988 -0.000139 0.000392 -1864.392090 -34.118694 -20.889150 -7.663783 -0.000088 -668.867920 -289.842834 -0.000002 -0.000000 0.000000 
8.743945 580.552124 3667.961426 -0.528859 3.180783 1.292902 -0.000012 -0.000080 365.647522 -4.064404 -11.057407 -2.484981 0.000014 -0.000154 827.386414 -1.663269 10.601126 4.231174 -0.000008 -0.000127 916.569458 -17.900085 11.038163 6.772198 -0.000160 -89.182648 691.163696 -18.420849 15.219123 -22.329598 177.992798 19.451591 747.856995 -17.300215 1.863570 1.048440 515.877197 -0.000106 -0.000106 -64.718310 43.760889 49.004975 1337.809570 -0.000060 0.000125 -60.667530 37.359024 -72.052635 1196.500610 -0.000014 0.000189 -11.231146 -8.319854 -33.567948 -178.356552 19.451578 747.856689 7.671464 -1.615885 2.450306 -515.877136 -0.000007 -0.000066 31.612950 22.964885 -29.943334 -1337.809937 -0.000036 -0.000284 -2.603528 -11.332880 3.543459 -1196.500977 -0.000155 0.000747 -3.061011 -11.807174 20.902076 445.911896 -0.000017 -0.000019 -14.135474 -13.380694 -38.737138 0.000043 0.000358 -2320.838379 15.117212 43.179442 25.608237 -0.000065 0.000324 -1864.392578 25.684781 -15.517741 8.900795 0.000151 -668.867920 -289.842865 -0.000001 0.000002 0.000001 -445.911987 -0.000072 -0.000401 2.152809 -18.360991 34.420103 -0.000010 0.000516 -2320.838135 1.983759 39.779848 -35.447292 0.000052 0.000431 -1864.391602 -34.104630 -20.921491 -7.709062 -0.000087 -668.867798 -289.842804 -0.000000 -0.000001 0.000000 
8.439675 580.312012 3668.038574 -0.530222 3.187589 1.288741 0.000007 0.000020 365.647552 -4.057520 -11.062249 -2.482159 -0.000006 -0.000097 827.386536 -1.661445 10.604994 4.234489 0.000001 -0.000089 916.568665 -17.896486 11.033578 6.771293 0.000017 -89.182961 691.163635 -18.419330 15.210199 -22.319743 177.992844 19.451729 747.856750 -17.310015 1.879910 1.044970 515.877197 -0.000022 0.000360 -64.708249 43.759670 49.000286 1337.809937 0.000440 0.000094 -60.623284 37.362299 -72.085461 1196.501099 0.000020 0.000319 -11.191526 -8.306296 -33.613478 -178.356537 19.451729 747.856201 7.669999 -1.613654 2.452764 -515.877014 0.000103 -0.000317 31.617612 22.960852 -29.952917 -1337.810059 0.000104 0.000192 -2.543302 -11.467139 3.602850 -1196.501221 -0.000209 -0.000024 -2.998266 -11.926610 20.758782 445.911987 0.000052 0.000057 -14.137372 -13.379909 -38.732295 0.000119 0.000396 -2320.838623 15.123740 43.171525 25.596516 -0.000085 0.000343 -1864.391357 25.689439 -15.511252 8.906194 0.000095 -668.867798 -289.842834 0.000002 0.000001 -0.000000 -445.911926 0.000057 0.000057 2.123484 -18.391536 34.406091 -0.000048 0.000516 -2320.838623 2.003031 39.804133 -35.423844 0.000166 0.000297 -1864.392090 -34.097711 -20.903736 -7.676898 -0.000023 -668.867798 -289.842834 0.000000 0.000001 0.000002 
8.072250 579.662109 3668.050293 -0.538506 3.178646 1.286300 0.000007 -0.000075 365.647736 -4.048234 -11.064499 -2.485790 0.000004 -0.000192 827.386414 -1.659502 10.621682 4.241420 0.000020 -0.000241 916.569275 -17.894086 11.028477 6.792811 0.000074 -89.182648 691.163330 -18.418368 15.205965 -22.337695 177.992874 19.451588 747.856445 -17.302824 1.873208 1.053946 515.877319 -0.000096 -0.000467 -65.099018 43.983710 49.309584 1337.810059 0.000134 0.000049 -60.120800 37.245302 -72.661936 1196.500732 0.000063 0.000664 -11.233383 -8.465186 -33.628143 -178.356506 19.451654 747.856689 7.662414 -1.600071 2.466538 -515.877136 0.000000 -0.000359 31.554808 22.842518 -29.925675 -1337.809937 0.000272 -0.000239 -2.504862 -11.404351 3.603036 -1196.501099 -0.000106 0.000133 -3.028637 -11.870100 20.741502 445.911926 0.000010 0.000114 -14.121984 -13.359113 -38.723672 0.000043 0.000454 -2320.838379 15.110214 43.156694 25.601089 -0.000237 0.000381 -1864.392334 25.701918 -15.513626 8.905662 -0.000120 -668.867798 -289.842834 0.000003 0.000001 -0.000001 -445.911926 -0.000048 -0.000229 2.148578 -18.364832 34.410152 0.000028 0.000411 -2320.837891 1.993605 39.804382 -35.432856 0.000128 0.000526 -1864.392212 -34.097121 -20.938727 -7.728455 -0.000212 -668.868042 -289.842834 -0.000001 -0.000000 0.000001 
